<svg xmlns="http://www.w3.org/2000/svg" xmlns:xlink="http://www.w3.org/1999/xlink" width="40" zoomAndPan="magnify" viewBox="0 0 30 30.000001" height="40" preserveAspectRatio="xMidYMid meet" version="1.0"><defs><clipPath id="29ae50a77b"><path d="M 3.515625 4.140625 L 26.503906 4.140625 L 26.503906 10.0625 L 3.515625 10.0625 Z M 3.515625 4.140625 " clip-rule="nonzero"/></clipPath><clipPath id="f7c8b09f0d"><path d="M 6.476562 4.140625 L 23.523438 4.140625 C 24.308594 4.140625 25.0625 4.453125 25.617188 5.007812 C 26.175781 5.5625 26.484375 6.316406 26.484375 7.101562 C 26.484375 7.886719 26.175781 8.636719 25.617188 9.195312 C 25.0625 9.75 24.308594 10.0625 23.523438 10.0625 L 6.476562 10.0625 C 5.691406 10.0625 4.9375 9.75 4.382812 9.195312 C 3.824219 8.636719 3.515625 7.886719 3.515625 7.101562 C 3.515625 6.316406 3.824219 5.5625 4.382812 5.007812 C 4.9375 4.453125 5.691406 4.140625 6.476562 4.140625 Z M 6.476562 4.140625 " clip-rule="nonzero"/></clipPath><clipPath id="dd6a1ce522"><path d="M 3.515625 4.140625 L 26.527344 4.140625 L 26.527344 9.945312 L 3.515625 9.945312 Z M 3.515625 4.140625 " clip-rule="nonzero"/></clipPath><clipPath id="74f798915a"><path d="M 6.472656 4.140625 L 23.519531 4.140625 C 24.304688 4.140625 25.058594 4.453125 25.613281 5.007812 C 26.167969 5.5625 26.480469 6.316406 26.480469 7.097656 C 26.480469 7.882812 26.167969 8.636719 25.613281 9.191406 C 25.058594 9.746094 24.304688 10.058594 23.519531 10.058594 L 6.472656 10.058594 C 5.6875 10.058594 4.9375 9.746094 4.382812 9.191406 C 3.824219 8.636719 3.515625 7.882812 3.515625 7.097656 C 3.515625 6.316406 3.824219 5.5625 4.382812 5.007812 C 4.9375 4.453125 5.6875 4.140625 6.472656 4.140625 Z M 6.472656 4.140625 " clip-rule="nonzero"/></clipPath><clipPath id="61859a39ee"><path d="M 3.515625 11.707031 L 26.503906 11.707031 L 26.503906 17.628906 L 3.515625 17.628906 Z M 3.515625 11.707031 " clip-rule="nonzero"/></clipPath><clipPath id="fc62d06b87"><path d="M 6.476562 11.707031 L 23.523438 11.707031 C 24.308594 11.707031 25.0625 12.019531 25.617188 12.574219 C 26.175781 13.132812 26.484375 13.882812 26.484375 14.667969 C 26.484375 15.453125 26.175781 16.207031 25.617188 16.761719 C 25.0625 17.316406 24.308594 17.628906 23.523438 17.628906 L 6.476562 17.628906 C 5.691406 17.628906 4.9375 17.316406 4.382812 16.761719 C 3.824219 16.207031 3.515625 15.453125 3.515625 14.667969 C 3.515625 13.882812 3.824219 13.132812 4.382812 12.574219 C 4.9375 12.019531 5.691406 11.707031 6.476562 11.707031 Z M 6.476562 11.707031 " clip-rule="nonzero"/></clipPath><clipPath id="512ccf8c3a"><path d="M 3.515625 11.710938 L 26.527344 11.710938 L 26.527344 17.515625 L 3.515625 17.515625 Z M 3.515625 11.710938 " clip-rule="nonzero"/></clipPath><clipPath id="c0f685e49a"><path d="M 6.472656 11.710938 L 23.519531 11.710938 C 24.304688 11.710938 25.058594 12.019531 25.613281 12.574219 C 26.167969 13.132812 26.480469 13.882812 26.480469 14.667969 C 26.480469 15.453125 26.167969 16.207031 25.613281 16.761719 C 25.058594 17.316406 24.304688 17.628906 23.519531 17.628906 L 6.472656 17.628906 C 5.6875 17.628906 4.9375 17.316406 4.382812 16.761719 C 3.824219 16.207031 3.515625 15.453125 3.515625 14.667969 C 3.515625 13.882812 3.824219 13.132812 4.382812 12.574219 C 4.9375 12.019531 5.6875 11.710938 6.472656 11.710938 Z M 6.472656 11.710938 " clip-rule="nonzero"/></clipPath><clipPath id="21dc9bf93a"><path d="M 3.515625 18.972656 L 26.503906 18.972656 L 26.503906 24.894531 L 3.515625 24.894531 Z M 3.515625 18.972656 " clip-rule="nonzero"/></clipPath><clipPath id="01ad972988"><path d="M 6.476562 18.972656 L 23.523438 18.972656 C 24.308594 18.972656 25.0625 19.285156 25.617188 19.839844 C 26.175781 20.394531 26.484375 21.148438 26.484375 21.933594 C 26.484375 22.71875 26.175781 23.46875 25.617188 24.027344 C 25.0625 24.582031 24.308594 24.894531 23.523438 24.894531 L 6.476562 24.894531 C 5.691406 24.894531 4.9375 24.582031 4.382812 24.027344 C 3.824219 23.46875 3.515625 22.71875 3.515625 21.933594 C 3.515625 21.148438 3.824219 20.394531 4.382812 19.839844 C 4.9375 19.285156 5.691406 18.972656 6.476562 18.972656 Z M 6.476562 18.972656 " clip-rule="nonzero"/></clipPath><clipPath id="ae6b7f160d"><path d="M 3.515625 18.972656 L 26.527344 18.972656 L 26.527344 24.777344 L 3.515625 24.777344 Z M 3.515625 18.972656 " clip-rule="nonzero"/></clipPath><clipPath id="2b6b0ab8be"><path d="M 6.472656 18.972656 L 23.519531 18.972656 C 24.304688 18.972656 25.058594 19.285156 25.613281 19.839844 C 26.167969 20.394531 26.480469 21.144531 26.480469 21.929688 C 26.480469 22.714844 26.167969 23.46875 25.613281 24.023438 C 25.058594 24.578125 24.304688 24.890625 23.519531 24.890625 L 6.472656 24.890625 C 5.6875 24.890625 4.9375 24.578125 4.382812 24.023438 C 3.824219 23.46875 3.515625 22.714844 3.515625 21.929688 C 3.515625 21.144531 3.824219 20.394531 4.382812 19.839844 C 4.9375 19.285156 5.6875 18.972656 6.472656 18.972656 Z M 6.472656 18.972656 " clip-rule="nonzero"/></clipPath></defs><g clip-path="url(#29ae50a77b)"><g clip-path="url(#f7c8b09f0d)"><path fill="#ffffff" d="M 3.515625 4.140625 L 26.480469 4.140625 L 26.480469 10.0625 L 3.515625 10.0625 Z M 3.515625 4.140625 " fill-opacity="1" fill-rule="nonzero"/></g></g><g clip-path="url(#dd6a1ce522)"><g clip-path="url(#74f798915a)"><path stroke-linecap="butt" transform="matrix(0.725806, 0, 0, 0.725806, 3.514223, 4.139834)" fill="none" stroke-linejoin="miter" d="M 4.076064 0.00109017 L 27.562871 0.00109017 C 28.644642 0.00109017 29.683358 0.431646 30.447594 1.195882 C 31.21183 1.960118 31.642385 2.998833 31.642385 4.075222 C 31.642385 5.156993 31.21183 6.195709 30.447594 6.959945 C 29.683358 7.724181 28.644642 8.154737 27.562871 8.154737 L 4.076064 8.154737 C 2.994293 8.154737 1.96096 7.724181 1.196724 6.959945 C 0.427105 6.195709 0.00193175 5.156993 0.00193175 4.075222 C 0.00193175 2.998833 0.427105 1.960118 1.196724 1.195882 C 1.96096 0.431646 2.994293 0.00109017 4.076064 0.00109017 Z M 4.076064 0.00109017 " stroke="#000000" stroke-width="4" stroke-opacity="1" stroke-miterlimit="4"/></g></g><g clip-path="url(#61859a39ee)"><g clip-path="url(#fc62d06b87)"><path fill="#ffffff" d="M 3.515625 11.707031 L 26.480469 11.707031 L 26.480469 17.628906 L 3.515625 17.628906 Z M 3.515625 11.707031 " fill-opacity="1" fill-rule="nonzero"/></g></g><g clip-path="url(#512ccf8c3a)"><g clip-path="url(#c0f685e49a)"><path stroke-linecap="butt" transform="matrix(0.725806, 0, 0, 0.725806, 3.514223, 11.708985)" fill="none" stroke-linejoin="miter" d="M 4.076064 0.00269027 L 27.562871 0.00269027 C 28.644642 0.00269027 29.683358 0.427864 30.447594 1.1921 C 31.21183 1.961718 31.642385 2.995052 31.642385 4.076823 C 31.642385 5.158593 31.21183 6.197309 30.447594 6.961545 C 29.683358 7.725781 28.644642 8.156337 27.562871 8.156337 L 4.076064 8.156337 C 2.994293 8.156337 1.96096 7.725781 1.196724 6.961545 C 0.427105 6.197309 0.00193175 5.158593 0.00193175 4.076823 C 0.00193175 2.995052 0.427105 1.961718 1.196724 1.1921 C 1.96096 0.427864 2.994293 0.00269027 4.076064 0.00269027 Z M 4.076064 0.00269027 " stroke="#000000" stroke-width="4" stroke-opacity="1" stroke-miterlimit="4"/></g></g><g clip-path="url(#21dc9bf93a)"><g clip-path="url(#01ad972988)"><path fill="#ffffff" d="M 3.515625 18.972656 L 26.480469 18.972656 L 26.480469 24.894531 L 3.515625 24.894531 Z M 3.515625 18.972656 " fill-opacity="1" fill-rule="nonzero"/></g></g><g clip-path="url(#ae6b7f160d)"><g clip-path="url(#2b6b0ab8be)"><path stroke-linecap="butt" transform="matrix(0.725806, 0, 0, 0.725806, 3.514223, 18.971638)" fill="none" stroke-linejoin="miter" d="M 4.076064 0.00140284 L 27.562871 0.00140284 C 28.644642 0.00140284 29.683358 0.431958 30.447594 1.196195 C 31.21183 1.960431 31.642385 2.993764 31.642385 4.075535 C 31.642385 5.157306 31.21183 6.196021 30.447594 6.960258 C 29.683358 7.724494 28.644642 8.155049 27.562871 8.155049 L 4.076064 8.155049 C 2.994293 8.155049 1.96096 7.724494 1.196724 6.960258 C 0.427105 6.196021 0.00193175 5.157306 0.00193175 4.075535 C 0.00193175 2.993764 0.427105 1.960431 1.196724 1.196195 C 1.96096 0.431958 2.994293 0.00140284 4.076064 0.00140284 Z M 4.076064 0.00140284 " stroke="#000000" stroke-width="4" stroke-opacity="1" stroke-miterlimit="4"/></g></g></svg>